#!OML:ASF H:\SpeedWalk\Project 1\Capture day 2\Session 1\male.ASF
:FULLY-SPECIFIED
:DEGREES
56
root -8.392603 17.884447 -19.367620 -0.264865 2.271484 -3.113676
lowerback 9.619197 0.969780 1.996596 
upperback -0.135951 1.727069 3.640917 
thorax -5.602457 0.848832 2.438896 
lowerneck -13.219833 0.287976 1.594753 
upperneck 18.903285 0.956246 -4.297536 
head 8.059182 0.147706 -1.589996 
rclavicle 0.000000 0.000000 
rhumerus -31.917975 -27.218837 -72.590265 
rradius 21.086094 
rwrist 10.002391 
rhand -12.776099 -10.513991 
rfingers 0.000000 
rthumb 13.309003 -40.069021 
lclavicle 0.000000 0.000000 
lhumerus -39.621416 4.986286 87.762177 
lradius 38.308341 
lwrist -12.909043 
lhand -6.981465 15.603873 
lfingers 0.000000 
lthumb 18.888641 44.706718 
rfemur -13.886290 -0.915967 27.760203 
rtibia 27.173476 
rfoot -11.440261 -5.935465 
rtoes 10.548965 
lfemur -39.334264 4.245956 -14.414963 
ltibia 96.062410 
lfoot -16.778929 -5.646199 
ltoes -6.909547 
57
root -8.402595 17.891784 -19.269710 -0.385363 2.279338 -3.396066
lowerback 9.806426 1.014224 2.285695 
upperback -0.112230 1.829813 3.694051 
thorax -5.679287 0.891558 2.314726 
lowerneck -13.232168 0.268196 1.595153 
upperneck 18.964520 0.927965 -4.281633 
head 8.080774 0.135419 -1.588456 
rclavicle 0.000000 0.000000 
rhumerus -31.664474 -26.928306 -72.799001 
rradius 21.326254 
rwrist 9.484539 
rhand -12.842036 -10.533549 
rfingers 0.000000 
rthumb 13.245459 -40.092696 
lclavicle 0.000000 0.000000 
lhumerus -39.554547 4.995198 87.787841 
lradius 38.615415 
lwrist -12.391783 
lhand -7.277833 15.661262 
lfingers 0.000000 
lthumb 18.603576 44.791608 
rfemur -13.158303 -0.893111 28.125295 
rtibia 26.709957 
rfoot -11.540915 -6.044799 
rtoes 10.365311 
lfemur -41.319399 4.602021 -14.322144 
ltibia 97.349291 
lfoot -17.946141 -5.593228 
ltoes -7.277818 
58
root -8.411947 17.898550 -19.171238 -0.510021 2.282767 -3.671596
lowerback 9.999579 1.058848 2.575145 
upperback -0.085291 1.933818 3.741249 
thorax -5.755057 0.934591 2.183551 
lowerneck -13.258258 0.247792 1.597724 
upperneck 19.023232 0.897633 -4.263380 
head 8.103984 0.122425 -1.586742 
rclavicle 0.000000 0.000000 
rhumerus -31.407462 -26.593195 -73.034085 
rradius 21.598452 
rwrist 8.892983 
rhand -12.906648 -10.556076 
rfingers 0.000000 
rthumb 13.183190 -40.119227 
lclavicle 0.000000 0.000000 
lhumerus -39.484769 4.960314 87.827038 
lradius 38.925519 
lwrist -11.898272 
lhand -7.526090 15.699537 
lfingers 0.000000 
lthumb 18.364786 44.852561 
rfemur -12.424259 -0.860854 28.482691 
rtibia 26.242533 
rfoot -11.630532 -6.167847 
rtoes 10.156334 
lfemur -43.291465 4.929446 -14.270849 
ltibia 98.518514 
lfoot -19.025166 -5.542513 
ltoes -7.581541 
59
root -8.420661 17.904778 -19.072778 -0.638739 2.274638 -3.938649
lowerback 10.195733 1.103863 2.860181 
upperback -0.055338 2.038765 3.784138 
thorax -5.828498 0.977955 2.049835 
lowerneck -13.279592 0.228955 1.600771 
upperneck 19.070231 0.868611 -4.243579 
head 8.122477 0.110393 -1.584316 
rclavicle 0.000000 0.000000 
rhumerus -31.148864 -26.209474 -73.291591 
rradius 21.897055 
rwrist 8.243326 
rhand -12.964108 -10.566674 
rfingers 0.000000 
rthumb 13.127808 -40.133411 
lclavicle 0.000000 0.000000 
lhumerus -39.415219 4.890745 87.876310 
lradius 39.233004 
lwrist -11.450691 
lhand -7.731070 15.706425 
lfingers 0.000000 
lthumb 18.167617 44.877917 
rfemur -11.686666 -0.821670 28.830904 
rtibia 25.772145 
rfoot -11.703571 -6.293874 
rtoes 9.942315 
lfemur -45.239618 5.229745 -14.258922 
ltibia 99.563971 
lfoot -20.005325 -5.492387 
ltoes -7.846149 
60
root -8.428662 17.910592 -18.974457 -0.770499 2.251133 -4.196175
lowerback 10.393259 1.149553 3.139153 
upperback -0.022244 2.144742 3.823234 
thorax -5.898617 1.021775 1.915041 
lowerneck -13.292133 0.212836 1.604024 
upperneck 19.103218 0.842767 -4.223523 
head 8.134801 0.100121 -1.581326 
rclavicle 0.000000 0.000000 
rhumerus -30.888108 -25.770857 -73.572142 
rradius 22.221322 
rwrist 7.543117 
rhand -13.011911 -10.571726 
rfingers 0.000000 
rthumb 13.081723 -40.141473 
lclavicle 0.000000 0.000000 
lhumerus -39.346537 4.793834 87.932466 
lradius 39.534412 
lwrist -11.062921 
lhand -7.898613 15.687285 
lfingers 0.000000 
lthumb 18.006424 44.873720 
rfemur -10.946563 -0.777012 29.168630 
rtibia 25.298662 
rfoot -11.758459 -6.416043 
rtoes 9.732713 
lfemur -47.157004 5.502675 -14.283464 
ltibia 100.481923 
lfoot -20.884505 -5.444136 
ltoes -8.090433 
61
root -8.435835 17.916182 -18.875927 -0.902827 2.214071 -4.444153
lowerback 10.592577 1.196411 3.415082 
upperback 0.014169 2.252638 3.857231 
thorax -5.965328 1.066402 1.775944 
lowerneck -13.308005 0.198285 1.607396 
upperneck 19.126890 0.818533 -4.202745 
head 8.144680 0.090724 -1.577857 
rclavicle 0.000000 0.000000 
rhumerus -30.621052 -25.284122 -73.875369 
rradius 22.570012 
rwrist 6.803773 
rhand -13.053161 -10.589983 
rfingers 0.000000 
rthumb 13.041961 -40.162298 
lclavicle 0.000000 0.000000 
lhumerus -39.275643 4.669768 87.993891 
lradius 39.831658 
lwrist -10.733741 
lhand -8.016974 15.680854 
lfingers 0.000000 
lthumb 17.892493 44.877735 
rfemur -10.203584 -0.726720 29.495585 
rtibia 24.820145 
rfoot -11.799120 -6.536138 
rtoes 9.527229 
lfemur -49.045439 5.743820 -14.341509 
ltibia 101.270102 
lfoot -21.666372 -5.400102 
ltoes -8.304760 
62
root -8.442566 17.921489 -18.778060 -1.028824 2.152359 -4.681147
lowerback 10.787658 1.245520 3.680105 
upperback 0.049732 2.362950 3.887996 
thorax -6.029827 1.112326 1.638917 
lowerneck -13.282496 0.187247 1.605898 
upperneck 19.121326 0.799223 -4.180703 
head 8.137473 0.084101 -1.572173 
rclavicle 0.000000 0.000000 
rhumerus -30.351415 -24.776948 -74.180786 
rradius 22.920540 
rwrist 6.084074 
rhand -13.084747 -10.560622 
rfingers 0.000000 
rthumb 13.011487 -40.134907 
lclavicle 0.000000 0.000000 
lhumerus -39.207592 4.530858 88.055865 
lradius 40.117816 
lwrist -10.476772 
lhand -8.077783 15.688643 
lfingers 0.000000 
lthumb 17.834029 44.890832 
rfemur -9.465181 -0.665456 29.811188 
rtibia 24.333258 
rfoot -11.823944 -6.650370 
rtoes 9.326097 
lfemur -50.918345 5.957809 -14.430103 
ltibia 101.918942 
lfoot -22.341406 -5.381964 
ltoes -8.457246 
63
root -8.448571 17.926659 -18.679881 -1.146072 2.073263 -4.905314
lowerback 10.977975 1.296078 3.937791 
upperback 0.088558 2.474494 3.912716 
thorax -6.087159 1.158909 1.499165 
lowerneck -13.259137 0.180188 1.606830 
upperneck 19.102457 0.785183 -4.162438 
head 8.126394 0.079829 -1.567443 
rclavicle 0.000000 0.000000 
rhumerus -30.067409 -24.245476 -74.500010 
rradius 23.280387 
rwrist 5.385570 
rhand -13.110893 -10.532016 
rfingers 0.000000 
rthumb 12.986298 -40.107874 
lclavicle 0.000000 0.000000 
lhumerus -39.134771 4.378873 88.116345 
lradius 40.391940 
lwrist -10.301773 
lhand -8.114971 15.673796 
lfingers 0.000000 
lthumb 17.798210 44.879292 
rfemur -8.728703 -0.592435 30.112386 
rtibia 23.836176 
rfoot -11.847263 -6.768517 
rtoes 9.108274 
lfemur -52.763344 6.132262 -14.544536 
ltibia 102.412892 
lfoot -22.917949 -5.405055 
ltoes -8.547959 
